<svg xmlns="http://www.w3.org/2000/svg" version="1.1" xmlns:xlink="http://www.w3.org/1999/xlink" xmlns:svgjs="http://svgjs.com/svgjs" width="1440" height="560" preserveAspectRatio="none" viewBox="0 0 1440 560"><g mask="url(&quot;#SvgjsMask1087&quot;)" fill="none"><rect width="1440" height="560" x="0" y="0" fill="url(#SvgjsLinearGradient1088)"></rect><path d="M1488 560L0 560 L0 365.82Q-5.3 288.51, 72 283.21Q152.18 243.38, 192 323.56Q262.32 273.88, 312 344.2Q363.43 323.63, 384 375.06Q422.67 293.73, 504 332.4Q548 256.4, 624 300.4Q652.13 256.52, 696 284.65Q745.29 261.94, 768 311.23Q843.91 267.14, 888 343.05Q917.91 300.97, 960 330.88Q1011.66 262.54, 1080 314.21Q1106.36 268.56, 1152 294.92Q1181.05 251.97, 1224 281.01Q1308.89 245.9, 1344 330.8Q1401.74 316.55, 1416 374.29Q1418.55 304.84, 1488 307.39z" fill="#182f5d"></path><path d="M1488 560L0 560 L0 387.67Q42.73 310.4, 120 353.13Q163.74 324.87, 192 368.6Q247.48 352.08, 264 407.56Q286.37 357.93, 336 380.29Q366.33 338.63, 408 368.96Q497.99 338.95, 528 428.94Q581.79 362.74, 648 416.53Q674.8 371.32, 720 398.12Q735.31 341.44, 792 356.75Q859.4 304.15, 912 371.56Q959.32 346.88, 984 394.2Q1053.77 343.97, 1104 413.73Q1119.21 356.94, 1176 372.15Q1246.58 322.73, 1296 393.3Q1379.27 356.57, 1416 439.84Q1416.61 368.45, 1488 369.06z" fill="#25467d"></path><path d="M1488 560L0 560 L0 491.64Q12.29 431.93, 72 444.22Q143.03 395.25, 192 466.28Q266.48 420.76, 312 495.24Q355.39 466.63, 384 510.02Q402.76 408.78, 504 427.54Q548.51 400.05, 576 444.56Q642.73 439.29, 648 506.03Q661.89 447.92, 720 461.82Q760.67 382.49, 840 423.15Q884.92 396.07, 912 440.99Q1000.62 409.61, 1032 498.23Q1032.37 426.6, 1104 426.96Q1136.78 387.74, 1176 420.51Q1243.84 416.35, 1248 484.19Q1316.14 432.34, 1368 500.48Q1398.07 410.55, 1488 440.62z" fill="#356cb1"></path><path d="M1464 560L0 560 L0 568.12Q30.22 526.34, 72 556.55Q100.61 465.15, 192 493.76Q268.39 450.15, 312 526.55Q402.34 496.89, 432 587.23Q459.56 542.79, 504 570.34Q535.26 481.61, 624 512.87Q673.41 490.28, 696 539.69Q763.57 487.26, 816 554.82Q886.47 505.29, 936 575.75Q937.94 505.69, 1008 507.64Q1059.32 438.95, 1128 490.27Q1181.18 471.45, 1200 524.63Q1226.78 479.41, 1272 506.19Q1369.81 484, 1392 581.81Q1400.45 518.25, 1464 526.7z" fill="white"></path></g><defs><mask id="SvgjsMask1087"><rect width="1440" height="560" fill="#ffffff"></rect></mask><linearGradient x1="15.28%" y1="-39.29%" x2="84.72%" y2="139.29%" gradientUnits="userSpaceOnUse" id="SvgjsLinearGradient1088"><stop stop-color="#0e2a47" offset="0"></stop><stop stop-color="#00459e" offset="1"></stop></linearGradient></defs></svg>