<svg xmlns="http://www.w3.org/2000/svg" version="1.1" xmlns:xlink="http://www.w3.org/1999/xlink" xmlns:svgjs="http://svgjs.com/svgjs" width="1440" height="900" preserveAspectRatio="none" viewBox="0 0 1440 900"><g mask="url(&quot;#SvgjsMask1227&quot;)" fill="none"><rect width="1440" height="900" x="0" y="0" fill="url(#SvgjsLinearGradient1228)"></rect><path d="M1488 900L0 900 L0 524.22Q45.99 498.21, 72 544.19Q85.84 438.04, 192 451.88Q304.63 444.5, 312 557.13Q389.77 514.9, 432 592.68Q461.33 550, 504 579.33Q502.28 457.62, 624 455.9Q754.9 466.8, 744 597.69Q740.32 474.01, 864 470.33Q915.81 402.14, 984 453.96Q1073.98 423.94, 1104 513.92Q1119.3 457.21, 1176 472.51Q1245.67 422.19, 1296 491.86Q1344.76 468.63, 1368 517.39Q1441.1 470.49, 1488 543.59z" fill="#182f5d"></path><path d="M1512 900L0 900 L0 581.42Q88.58 598, 72 686.57Q63.99 606.56, 144 598.55Q174.2 556.75, 216 586.95Q264.17 515.12, 336 563.29Q423.41 530.7, 456 618.12Q472.39 562.51, 528 578.9Q599.88 530.78, 648 602.67Q706.94 589.61, 720 648.55Q744.9 601.45, 792 626.36Q879.25 593.62, 912 680.87Q960.71 657.58, 984 706.29Q1009.72 612, 1104 637.72Q1177.69 591.41, 1224 665.11Q1267.38 636.49, 1296 679.86Q1303.79 615.65, 1368 623.45Q1392.21 575.66, 1440 599.87Q1465.94 553.81, 1512 579.75z" fill="#25467d"></path><path d="M1512 900L0 900 L0 805.4Q46.28 779.68, 72 825.96Q86.17 720.13, 192 734.3Q258.06 680.36, 312 746.41Q369.6 732, 384 789.6Q387.92 721.52, 456 725.44Q498.96 648.4, 576 691.36Q672.89 668.25, 696 765.15Q762.45 759.6, 768 826.05Q779.86 765.9, 840 777.76Q853.18 718.94, 912 732.13Q952.56 652.69, 1032 693.25Q1121.87 663.12, 1152 752.98Q1247.35 728.33, 1272 823.68Q1276.68 708.36, 1392 713.04Q1443.05 644.09, 1512 695.13z" fill="#356cb1"></path><path d="M1464 900L0 900 L0 924.4Q-21.93 830.47, 72 808.55Q99.88 764.42, 144 792.3Q201.13 777.43, 216 834.57Q292.74 839.31, 288 916.05Q329.7 885.75, 360 927.45Q365.62 861.07, 432 866.69Q447.61 810.3, 504 825.9Q545.95 795.85, 576 837.79Q647.88 789.66, 696 861.54Q709.62 803.16, 768 816.78Q815.07 791.85, 840 838.91Q893.66 820.57, 912 874.22Q920.95 811.17, 984 820.13Q1025.16 789.29, 1056 830.44Q1116.85 819.29, 1128 880.14Q1212.9 845.05, 1248 929.95Q1278.83 888.78, 1320 919.6Q1323.47 851.08, 1392 854.55Q1419.43 809.98, 1464 837.41z" fill="white"></path></g><defs><mask id="SvgjsMask1227"><rect width="1440" height="900" fill="#ffffff"></rect></mask><linearGradient x1="9.37%" y1="-15%" x2="90.63%" y2="115%" gradientUnits="userSpaceOnUse" id="SvgjsLinearGradient1228"><stop stop-color="#0e2a47" offset="0"></stop><stop stop-color="#00459e" offset="1"></stop></linearGradient></defs></svg>